<svg id="Glyph_Icon" height="512" viewBox="0 0 64 64" width="512" xmlns="http://www.w3.org/2000/svg" data-name="Glyph Icon"><path d="m55.221 10.79c-.555-.242-1.182-.085-1.564.39-4.738 5.882-18.607 6.77-22.746 6.903-1.002.032-2.035.155-3.067.366-20.567 4.187-20.255 19.314-19.671 23.85.097.75.601 1.362 1.315 1.599.708.236 1.469.045 1.988-.492 2.403-2.49 7.671-6.969 15.952-8.985 3.422-.833 6.668-2.36 9.557-4.111-3.375 2.564-7.731 5.332-13.243 7.92-5.526 2.596-9.586 7.096-11.075 8.909-.339.413-.493.953-.423 1.483.072.536.368 1.023.812 1.338 1.414 1.004 3.099 1.813 5.006 2.408 2.053.638 4.168.954 6.286.954 4.28 0 8.564-1.287 12.329-3.782 14.464-9.588 18.439-31.031 19.312-37.373.082-.588-.227-1.141-.768-1.377z"/></svg>